# xmcd CD database file
#
# Track frame offsets:
#	150
#	19087
#	35737
#
# Disc length: 726 seconds
#
# Revision: 0
# Processed by: cddbd v1.5.1PL0 Copyright (c) Steve Scherf et al.
# Submitted via: CDex 1.51
#
DISCID=1e02d403
DTITLE=谷口宗一 - ありがとう
DYEAR=1994
DGENRE=Japanese Pop
TTITLE0=ありがとう
TTITLE1=手の中の地球
TTITLE2=ありがとう(カラオケ)
EXTD=YEAR: 1994
EXTT0=
EXTT1=
EXTT2=
PLAYORDER=
